HIERARCHY
ROOT root
{
	OFFSET	0	13.1	24.9
	CHANNELS 6  Xposition Yposition Zposition Xrotation Yrotation Zrotation
	JOINT spine_1
	{
		OFFSET	0	9.99999	0
		CHANNELS 3  Xrotation Yrotation Zrotation
		JOINT spine_2
		{
			OFFSET	0	112	-10
			CHANNELS 3  Xrotation Yrotation Zrotation
			JOINT spine_3
			{
				OFFSET	0	206.5	19.3
				CHANNELS 3  Xrotation Yrotation Zrotation
				JOINT spine_4
				{
					OFFSET	0	110.4	14.6
					CHANNELS 3  Xrotation Yrotation Zrotation
					JOINT neck_1
					{
						OFFSET	0	71.8	-50.3
						CHANNELS 3  Xrotation Yrotation Zrotation
						JOINT neck_2
						{
							OFFSET	0	86.2	-25.8
							CHANNELS 3  Xrotation Yrotation Zrotation
							JOINT head_ee
							{
								OFFSET	0	179.8	-8.7
								CHANNELS 3  Xrotation Yrotation Zrotation
								End Site
								{
									OFFSET	1	0	0
								}
							}
						}
					}
					JOINT left_clavicle
					{
						OFFSET	-43.2	22.4	-70.8
						CHANNELS 3  Xrotation Yrotation Zrotation
						JOINT left_shoulder
						{
							OFFSET	-93.9	-5.79999	48.7
							CHANNELS 3  Xrotation Yrotation Zrotation
							JOINT left_elbow
							{
								OFFSET	-291.4	-30.8	15.2
								CHANNELS 3  Xrotation Yrotation Zrotation
								JOINT left_lowarm_twist
								{
									OFFSET	-110.7	-3.89999	13.6
									CHANNELS 3  Xrotation Yrotation Zrotation
									JOINT left_hand
									{
										OFFSET	-110.7	-3.89999	13.6
										CHANNELS 3  Xrotation Yrotation Zrotation
										JOINT left_ee
										{
											OFFSET	-80.8	-5.10001	12.1
											CHANNELS 3  Xrotation Yrotation Zrotation
											End Site
											{
												OFFSET	1	0	0
											}
										}
									}
								}
							}
						}
					}
					JOINT right_clavicle
					{
						OFFSET	43.2	22.4	-70.8
						CHANNELS 3  Xrotation Yrotation Zrotation
						JOINT right_shoulder
						{
							OFFSET	93.9	-5.79999	48.7
							CHANNELS 3  Xrotation Yrotation Zrotation
							JOINT right_elbow
							{
								OFFSET	291.4	-30.8	15.2
								CHANNELS 3  Xrotation Yrotation Zrotation
								JOINT right_lowarm_twist
								{
									OFFSET	110.7	-3.89999	13.6
									CHANNELS 3  Xrotation Yrotation Zrotation
									JOINT right_hand
									{
										OFFSET	110.7	-3.89999	13.6
										CHANNELS 3  Xrotation Yrotation Zrotation
										JOINT right_ee
										{
											OFFSET	80.8	-5.10001	12.1
											CHANNELS 3  Xrotation Yrotation Zrotation
											End Site
											{
												OFFSET	1	0	0
											}
										}
									}
								}
							}
						}
					}
				}
			}
		}
	}
	JOINT left_hip
	{
		OFFSET	-82.8	-127.5	0.300001
		CHANNELS 3  Xrotation Yrotation Zrotation
		JOINT left_knee
		{
			OFFSET	-28.2	-396.7	2.2
			CHANNELS 3  Xrotation Yrotation Zrotation
			JOINT left_ankle
			{
				OFFSET	-11.7	-411.3	35.4
				CHANNELS 3  Xrotation Yrotation Zrotation
				JOINT left_toes
				{
					OFFSET	0	-60	-88.6
					CHANNELS 3  Xrotation Yrotation Zrotation
					JOINT left_foot_ee
					{
						OFFSET	-22.5	-16.5	-42.2
						CHANNELS 3  Xrotation Yrotation Zrotation
						End Site
						{
							OFFSET	1	0	0
						}
					}
				}
			}
		}
	}
	JOINT right_hip
	{
		OFFSET	82.8	-127.5	0.300001
		CHANNELS 3  Xrotation Yrotation Zrotation
		JOINT right_knee
		{
			OFFSET	28.2	-396.7	2.2
			CHANNELS 3  Xrotation Yrotation Zrotation
			JOINT right_ankle
			{
				OFFSET	11.7	-411.3	35.4
				CHANNELS 3  Xrotation Yrotation Zrotation
				JOINT right_toes
				{
					OFFSET	0	-60	-88.6
					CHANNELS 3  Xrotation Yrotation Zrotation
					JOINT right_foot_ee
					{
						OFFSET	22.5	-16.5	-42.2
						CHANNELS 3  Xrotation Yrotation Zrotation
						End Site
						{
							OFFSET	1	0	0
						}
					}
				}
			}
		}
	}
}
MOTION
Frames: 13
Frame Time: 0.02
3407.21 715.59 -522.275 1.64106 44.7221 -1.18674 -0.306619 0.689966 1.74522 -0.30511 0.577534 1.78557 -0.285739 0.180204 1.86795 -0.290296 0.472901 1.81608 -1.33683 7.57375 -1.9041 -1.17299 15.1452 -1.10296 -0.0 0.0 -0.0 7.27309 -10.6591 13.9399 33.239 17.3038 48.551 1.05304 -27.5479 0.258151 20.9885 0.256003 -2.65391 2.06743 14.7047 19.2642 -0.0 0.0 -0.0 11.4567 14.1978 -22.988 -24.2101 6.29904 -63.2218 0.86885 23.2869 -0.17904 14.9028 -0.282339 1.87741 1.09144 19.2239 0.911943 0.0 0.0 0.0 7.46657 25.9818 -1.95073 -17.248 0.318248 2.61775 0.657732 -1.85327 -0.0976571 -2.96758 0.0 0.0 -0.0 0.0 -0.0 16.0337 18.1165 -2.2763 -58.7221 2.06359 -8.38316 13.1218 -27.7155 1.96274 6.42624 -0.0 -0.0 0.0 0.0 0.0 
3402.67 714.045 -519.876 0.475706 41.6069 -0.671436 -0.250843 0.751777 2.08199 -0.248644 0.617802 2.12558 -0.223875 0.148857 2.2085 -0.230339 0.495698 2.15731 -0.488388 8.70831 -1.05927 -0.2893 16.4372 -0.179501 -0.0 0.0 -0.0 6.60732 -11.4858 12.487 36.51 15.2635 47.5169 1.22991 -31.351 0.345156 22.2076 0.240821 -2.80889 1.91407 17.708 19.1949 -0.0 0.0 -0.0 11.9071 16.1608 -23.9402 -23.9893 8.12362 -63.4286 0.821425 22.1418 -0.160726 14.2311 -0.280189 1.79165 1.0929 19.4904 1.02029 0.0 0.0 0.0 8.67778 32.7038 -2.8996 -18.285 0.312107 2.77674 1.71358 -6.2796 -0.258067 -2.89135 0.0 0.0 -0.0 0.0 -0.0 23.2705 18.661 -3.43515 -62.0802 2.42875 -8.75055 11.3841 -28.2679 1.71861 6.46738 -0.0 -0.0 0.0 0.0 0.0 
3390.72 713.741 -524.567 0.334701 41.8419 0.0791208 -0.0254296 0.707436 1.99457 -0.0234028 0.579109 2.03553 -0.00129424 0.138504 2.11173 -0.00720904 0.470203 2.06339 -0.886075 8.24904 -1.44481 -0.702246 15.9586 -0.59212 -0.0 0.0 -0.0 6.76682 -13.4219 12.7236 38.1771 14.7029 46.3968 1.46326 -35.9346 0.474543 22.0038 0.243589 -2.783 2.26971 13.7242 20.3039 -0.0 0.0 -0.0 11.9612 16.4702 -24.0503 -23.9684 5.53052 -64.5161 0.696344 19.0318 -0.116728 15.0733 -0.282725 1.89918 1.20771 18.4164 -0.218503 0.0 0.0 0.0 7.33985 33.5806 -2.87974 -16.4074 0.321114 2.48882 1.46058 -7.0864 -0.220952 -3.40619 0.0 0.0 -0.0 0.0 -0.0 34.1501 13.2608 -7.12324 -62.3277 2.45651 -8.77678 11.6241 -27.3706 1.74354 6.33542 -0.0 -0.0 0.0 0.0 0.0 
3371.09 716.235 -524.41 0.314536 42.1128 -0.16675 -0.0704729 0.691617 1.87343 -0.0687016 0.571027 1.91362 -0.0482282 0.154578 1.99098 -0.0534558 0.467017 1.94162 -0.732109 8.10321 -1.44008 -0.55038 15.6808 -0.622302 -0.0 0.0 -0.0 7.6417 -14.7633 14.5335 39.6235 14.4624 45.3964 1.75858 -41.057 0.658546 22.2866 0.239724 -2.81891 2.70585 8.2308 21.4757 -0.0 0.0 -0.0 12.0587 16.5965 -24.2679 -21.8048 2.45473 -64.1825 0.431419 12.0635 -0.045586 15.9872 -0.283688 2.01591 1.72804 21.8284 -2.11493 0.0 0.0 0.0 4.82274 36.8128 -1.1112 -14.3499 0.320146 2.17315 1.65078 -8.48399 -0.251361 -2.99137 0.0 0.0 -0.0 0.0 -0.0 41.1988 12.377 -8.72763 -62.3181 2.45543 -8.77577 11.2702 -27.8396 1.69735 6.19327 -0.0 -0.0 0.0 0.0 0.0 
3354.54 713.512 -525.17 -0.725586 42.6326 0.322086 0.0469422 0.686322 1.73514 0.0484339 0.574538 1.77528 0.0674093 0.190936 1.85612 0.0629246 0.481631 1.8027 -0.444465 8.45424 -1.05165 -0.255253 15.972 -0.203287 -0.0 0.0 -0.0 7.72157 -16.0805 14.63 37.7909 13.4418 46.1942 1.97974 -44.437 0.80873 24.0716 0.211241 -3.04515 2.8466 7.00377 22.0369 -0.0 0.0 -0.0 12.3221 19.5425 -24.7066 -21.5396 -3.4335 -64.7174 0.219072 6.19377 -0.0118527 16.4279 -0.283488 2.07219 2.5547 24.8739 -6.06218 0.0 0.0 0.0 4.87322 41.3013 -1.30909 -14.8572 0.321437 2.25098 2.76651 -14.3293 -0.435541 -3.25426 0.0 0.0 -0.0 0.0 -0.0 46.1176 13.2603 -10.4673 -62.777 2.5072 -8.82409 10.8123 -27.501 1.62727 6.68447 -0.0 -0.0 0.0 0.0 0.0 
3348.7 710.661 -525.026 -1.76358 42.1919 -0.0787819 0.0874877 0.746257 2.22127 0.0900304 0.603437 2.26423 0.115648 0.119032 2.34019 0.108336 0.487031 2.29207 0.354195 8.55933 -1.17955 0.572641 16.1907 -0.429725 -0.0 0.0 -0.0 7.17953 -14.7233 13.5363 38.4543 12.5476 46.9101 2.16035 -46.9355 0.937993 25.1508 0.190608 -3.18145 3.56808 1.45733 25.1946 -0.0 0.0 -0.0 12.0438 18.8686 -24.1102 -20.8247 -1.54813 -66.2221 0.23467 6.63095 -0.0135945 17.6174 -0.280784 2.2241 1.8311 20.8636 -3.23989 0.0 0.0 0.0 3.19778 44.776 0.943454 -13.0583 0.313747 1.97509 1.70592 -17.8982 -0.277155 -1.96904 0.0 0.0 -0.0 0.0 -0.0 50.2024 18.157 -13.0332 -61.345 2.34696 -8.67193 10.4099 -25.5342 1.55063 5.58021 -0.0 -0.0 0.0 0.0 0.0 
3329.71 709.547 -524.526 -2.53099 45.2963 0.395834 0.236666 0.498953 1.9926 0.238799 0.371174 2.0203 0.253076 -0.0526083 2.05343 0.247295 0.272284 2.03598 -0.234719 8.0155 -1.25756 -0.0513622 15.3358 -0.495674 -0.0 0.0 -0.0 7.15067 -14.6185 13.4801 39.2377 14.381 51.0105 2.40833 -50.0224 1.12373 23.5366 0.220519 -2.97743 4.21508 -3.25042 28.0989 -0.0 0.0 -0.0 11.7341 17.1477 -23.4987 -22.1175 -7.01812 -65.3227 0.253555 7.15923 -0.0158617 17.8732 -0.279791 2.25676 1.90063 20.5999 -3.8215 0.0 0.0 0.0 0.71742 43.1421 3.46646 -10.4204 0.286819 1.57128 1.84474 -20.0864 -0.305557 -3.55016 0.0 0.0 -0.0 0.0 -0.0 52.7462 20.2134 -13.2323 -58.2946 2.01868 -8.33488 8.29856 -27.961 1.26211 2.62345 -0.0 -0.0 0.0 0.0 0.0 
3315.68 708.473 -531.437 -3.56759 47.3763 1.06812 0.345715 0.215057 1.96282 0.347854 0.0897464 1.97252 0.351794 -0.314977 1.94929 0.346492 -0.00323278 1.97456 -0.666846 8.35308 -0.819751 -0.494874 15.6235 0.0620351 -0.0 0.0 -0.0 6.87021 -14.3806 12.89 39.1109 15.2232 53.1766 2.71788 -53.3875 1.36677 23.5542 0.220223 -2.97966 4.67741 -5.54099 30.6249 -0.0 0.0 -0.0 11.1647 15.8136 -22.2679 -22.686 -8.96802 -66.0638 0.24951 7.0462 -0.0153617 18.3551 -0.277524 2.31827 2.06313 19.9911 -5.18166 0.0 0.0 0.0 -0.451956 44.8387 4.17129 -9.51527 0.273299 1.43305 2.93188 -23.2301 -0.499541 -4.22794 0.0 0.0 -0.0 0.0 -0.0 54.8964 25.5116 -15.3744 -53.9977 1.58788 -7.83187 6.84987 -29.1654 1.05429 1.75294 -0.0 -0.0 0.0 0.0 0.0 
3301.27 707.511 -538.28 -5.33138 48.2252 2.17611 0.497808 0.10227 2.04446 0.500133 -0.0280036 2.04683 0.499851 -0.440333 1.99912 0.494294 -0.119153 2.04355 -0.783982 8.64675 -0.506774 -0.613112 15.9093 0.443237 -0.0 0.0 -0.0 6.72122 -14.1875 12.5813 38.8162 15.3743 54.4585 2.95269 -55.6293 1.55799 23.5236 0.220736 -2.97578 5.0265 -7.34446 32.4979 -0.0 0.0 -0.0 10.8654 14.84 -21.6329 -23.1675 -10.0154 -67.2136 0.260763 7.36055 -0.0167726 18.6596 -0.275825 2.35712 2.17192 19.5238 -6.1238 0.0 0.0 0.0 -1.14742 46.4523 4.66667 -9.11698 0.266658 1.37229 3.79154 -25.4973 -0.660701 -4.60974 0.0 0.0 -0.0 0.0 -0.0 56.9919 29.1824 -16.7069 -53.1368 1.50619 -7.72733 5.7878 -30.6956 0.902955 1.18565 -0.0 -0.0 0.0 0.0 0.0 
3289.21 705.52 -542.771 -6.35416 49.066 3.16272 0.670838 -0.0737833 2.02825 0.673104 -0.20267 2.01945 0.666411 -0.600341 1.9388 0.661279 -0.286675 2.00925 -0.78644 8.83704 -0.313745 -0.61398 16.0958 0.67092 -0.0 0.0 -0.0 6.34343 -14.0208 11.7814 38.3681 15.6128 54.9888 3.12356 -57.114 1.70028 23.4385 0.22215 -2.96501 5.27491 -8.57922 33.8513 -0.0 0.0 -0.0 10.691 14.4416 -21.2564 -23.5123 -10.5059 -67.7532 0.265471 7.49196 -0.0173813 18.8491 -0.274662 2.3813 2.24223 19.1709 -6.7583 0.0 0.0 0.0 -1.56328 47.4511 4.99197 -8.41193 0.253866 1.26486 4.39254 -27.0066 -0.77778 -4.84766 0.0 0.0 -0.0 0.0 -0.0 57.8218 31.5434 -18.0303 -51.7124 1.37456 -7.55176 5.13202 -31.2447 0.805238 0.81929 -0.0 -0.0 0.0 0.0 0.0 
3266.98 697.031 -548.588 -6.97517 47.6802 3.28041 0.952719 0.453543 1.95021 0.954775 0.328552 1.9751 0.966775 -0.0601035 2.00133 0.961278 0.25666 1.98572 0.68659 8.76783 -0.172852 0.885206 15.7016 0.645555 -0.0 0.0 -0.0 5.61996 -14.4096 10.2097 37.8252 13.0109 54.5427 3.01434 -56.1785 1.60905 23.6407 0.218763 -2.99061 5.06217 -7.38057 32.7644 -0.0 0.0 -0.0 10.7189 12.9706 -21.3649 -27.2703 -6.2967 -66.8857 0.25462 7.189 -0.0159948 18.6843 -0.275677 2.36027 2.35725 19.3545 -7.43911 0.0 0.0 0.0 -2.00689 50.2612 5.10007 -12.2539 0.307507 1.85182 8.15754 -28.9197 -1.45894 -4.77325 0.0 0.0 -0.0 0.0 -0.0 59.5785 36.675 -21.5766 -42.2168 0.613791 -6.3058 2.33907 -28.9269 0.363578 0.882074 -0.0 -0.0 0.0 0.0 0.0 
3232.5 685.142 -558.719 -9.31297 49.5308 4.48942 1.89152 0.198823 2.06822 1.89389 0.0668429 2.07667 1.89627 -0.303383 2.05549 1.89038 0.0249783 2.0776 2.47236 9.21217 -1.08994 2.77591 17.0539 -0.541355 -0.0 0.0 -0.0 5.3645 -15.2509 9.60425 37.816 14.763 55.7966 2.99197 -55.981 1.59048 22.3209 0.239244 -2.82327 5.57472 -8.44908 36.3807 -0.0 0.0 -0.0 9.75528 12.2188 -19.2511 -28.3835 -12.2195 -68.3302 0.1997 5.64978 -0.00985394 18.3991 -0.277291 2.32388 2.20406 18.3936 -6.86795 0.0 0.0 0.0 -3.37421 47.3881 6.42916 -13.8337 0.318124 2.09399 8.7721 -28.8131 -1.56269 -4.23707 0.0 0.0 -0.0 0.0 -0.0 58.4223 36.8122 -18.9756 -36.5006 0.259276 -5.50216 0.0255728 -26.4161 0.00393485 -1.63121 0.0 0.0 0.0 0.0 0.0 
3216.58 682.186 -567.757 -9.63946 46.1339 4.96286 2.14718 0.478568 1.95957 2.14924 0.352931 1.98603 2.16144 0.00378562 2.01713 2.1559 0.322243 1.99124 2.83308 8.74669 -1.07353 3.11596 16.1855 -0.594657 -0.0 0.0 -0.0 4.64406 -15.0212 8.08455 34.6525 12.8772 53.4441 2.93687 -55.4859 1.54495 21.7062 0.247465 -2.74518 5.66004 -7.30562 37.7251 -0.0 0.0 -0.0 10.3836 12.2687 -20.6367 -32.1506 -4.94347 -67.2422 0.244563 6.90786 -0.0147608 17.1374 -0.282255 2.16281 2.47168 18.4125 -8.6526 0.0 0.0 0.0 -4.95355 51.8703 7.16774 -13.4962 0.316417 2.04223 13.2071 -30.2285 -2.34987 -4.7384 0.0 0.0 -0.0 0.0 -0.0 58.7737 41.1224 -22.184 -22.4382 -0.258714 -3.41163 -5.05948 -22.7847 -0.77196 -5.66313 0.0 0.0 0.0 0.0 0.0 
